<svg width="25" height="25" viewBox="0 0 26 25" fill="none" xmlns="http://www.w3.org/2000/svg">
<path d="M16.9431 12.1792C17.3412 11.7964 17.3536 11.1633 16.9708 10.7652C16.588 10.3671 15.955 10.3547 15.5569 10.7375L16.9431 12.1792ZM13 14.5833L12.3069 15.3042C12.694 15.6764 13.306 15.6764 13.6931 15.3042L13 14.5833ZM10.4431 10.7375C10.045 10.3547 9.41196 10.3671 9.02917 10.7652C8.64637 11.1633 8.65879 11.7964 9.05689 12.1792L10.4431 10.7375ZM15.5569 10.7375L12.3069 13.8625L13.6931 15.3042L16.9431 12.1792L15.5569 10.7375ZM13.6931 13.8625L10.4431 10.7375L9.05689 12.1792L12.3069 15.3042L13.6931 13.8625Z" fill="white"/>
</svg>
